<mxfile host="app.diagrams.net" modified="2024-06-27T22:47:29.175Z" agent="Mozilla/5.0 (Windows NT 10.0; Win64; x64) AppleWebKit/537.36 (KHTML, like Gecko) Chrome/126.0.0.0 Safari/537.36 Edg/126.0.0.0" version="24.6.3" etag="FydCxqUes3MH5HEkgykc" type="github">
  <diagram name="Page-1" id="hWc6c_K8vR9eIQ7MWBZz">
    <mxGraphModel>
      <root>
        <mxCell id="0" />
        <mxCell id="1" parent="0" />
      </root>
    </mxGraphModel>
  </diagram>
</mxfile>
